<?xml version="1.0" standalone="no"?>
<!DOCTYPE svg PUBLIC "-//W3C//DTD SVG 20010904//EN"
 "http://www.w3.org/TR/2001/REC-SVG-20010904/DTD/svg10.dtd">
<svg version="1.0" xmlns="http://www.w3.org/2000/svg"
 width="500.000000pt" height="500.000000pt" viewBox="0 0 500.000000 500.000000"
 preserveAspectRatio="xMidYMid meet">
<metadata>
Created by potrace 1.14, written by Peter Selinger 2001-2017
</metadata>
<g transform="translate(0.000000,500.000000) scale(0.100000,-0.100000)"
fill="#000000" stroke="none">
<path d="M327 4663 c-4 -3 -7 -19 -7 -35 0 -22 7 -33 31 -46 18 -9 50 -32 73
-49 22 -18 59 -45 81 -60 22 -15 60 -45 85 -66 39 -33 165 -123 272 -192 17
-11 64 -51 104 -88 60 -57 77 -68 96 -62 17 4 10 -5 -24 -36 -37 -32 -48 -48
-48 -71 0 -24 6 -32 30 -41 43 -16 50 -50 60 -272 9 -182 24 -326 49 -445 42
-209 51 -269 51 -354 0 -52 4 -106 9 -119 13 -34 38 -40 61 -17 16 16 20 34
20 93 0 86 -4 115 -65 422 -25 131 -35 229 -35 358 -1 159 -22 306 -51 353
l-22 35 30 32 c52 56 221 289 274 377 18 30 48 75 67 99 55 73 84 138 72 161
-6 12 -21 20 -35 20 -19 0 -30 -10 -49 -48 -14 -27 -40 -69 -58 -93 -19 -24
-49 -69 -67 -99 -18 -30 -52 -82 -76 -115 -25 -33 -62 -85 -84 -115 -44 -61
-86 -112 -76 -93 8 16 -126 147 -177 174 -20 10 -40 24 -44 30 -3 6 -43 35
-88 64 -44 29 -110 75 -146 103 -36 28 -85 67 -110 86 -125 98 -183 129 -203
109z"/>
<path d="M3604 4620 c-127 -32 -154 -44 -245 -111 -69 -51 -162 -168 -198
-250 -52 -116 -30 -230 59 -313 57 -53 108 -71 270 -92 216 -29 272 -50 289
-111 26 -92 2 -230 -56 -331 -55 -95 -203 -197 -338 -233 -78 -20 -295 -18
-382 5 -40 10 -80 16 -88 12 -23 -8 -18 -53 8 -70 25 -15 136 -42 213 -51 104
-11 349 32 394 70 8 7 31 20 50 28 19 8 67 42 107 76 53 45 82 79 112 134 92
167 99 384 15 458 -56 49 -126 71 -320 98 -78 11 -154 25 -170 31 -36 14 -71
46 -90 82 -18 36 -18 129 1 175 25 60 114 171 174 217 77 59 106 73 208 97
113 26 196 20 285 -23 75 -35 99 -56 144 -126 41 -64 61 -73 85 -43 22 27 14
51 -48 132 -63 83 -184 143 -333 162 -20 3 -82 -7 -146 -23z"/>
<path d="M1766 3175 c-69 -28 -119 -66 -161 -122 -98 -132 -110 -152 -132
-227 -13 -44 -23 -95 -23 -113 0 -39 42 -157 65 -183 43 -48 182 -24 262 45
l40 34 18 -92 c33 -176 94 -266 197 -291 21 -5 33 -1 48 14 26 26 13 55 -27
65 -46 11 -72 33 -96 83 -38 76 -51 159 -43 285 7 118 12 145 46 242 52 149
49 250 -7 243 -31 -4 -45 -36 -73 -178 -10 -52 -26 -115 -35 -140 -9 -25 -20
-58 -26 -75 -14 -47 -80 -126 -123 -148 -21 -11 -59 -22 -85 -25 l-47 -4 -12
40 c-27 88 -5 212 52 287 17 23 45 62 63 87 38 56 103 96 174 107 77 12 101
59 42 82 -36 13 -52 11 -117 -16z"/>
<path d="M2176 3152 c-3 -5 -8 -151 -12 -323 -4 -247 -2 -344 10 -456 8 -78
13 -164 9 -191 -11 -94 34 -165 77 -122 18 18 20 32 19 142 -1 142 16 259 36
252 23 -9 103 37 149 86 30 32 50 65 60 101 21 69 20 76 -9 175 -22 71 -31 86
-59 103 -82 51 -135 8 -188 -149 l-18 -55 5 185 c5 211 -2 253 -47 258 -14 2
-29 -1 -32 -6z m261 -357 c19 -64 13 -147 -14 -183 -23 -31 -80 -72 -100 -72
-18 0 -9 90 19 185 40 138 69 160 95 70z"/>
<path d="M2559 3013 c-12 -30 -5 -203 11 -283 5 -25 9 -113 10 -195 0 -134 -3
-163 -29 -265 -48 -191 -50 -239 -11 -260 61 -33 109 82 130 305 4 50 22 134
38 188 33 108 34 110 60 148 9 14 30 45 45 68 37 56 112 104 151 97 49 -10 56
-22 56 -102 0 -98 -28 -161 -108 -243 l-61 -62 -58 3 c-56 3 -58 2 -61 -22 -2
-17 6 -34 22 -49 22 -20 30 -22 77 -16 49 7 58 13 130 84 107 108 149 198 149
321 0 61 -3 70 -36 112 -27 36 -45 48 -81 58 -43 10 -50 9 -108 -19 -60 -30
-113 -79 -163 -152 -13 -19 -29 -43 -37 -54 -7 -11 -16 -18 -18 -15 -8 8 -27
205 -27 276 0 78 -12 104 -46 104 -17 0 -28 -8 -35 -27z"/>
<path d="M3620 2480 c-183 -14 -332 -93 -462 -245 -82 -96 -116 -152 -166
-270 -46 -109 -49 -122 -73 -265 -24 -144 -21 -287 11 -473 32 -189 134 -359
280 -466 94 -70 140 -90 231 -102 121 -15 252 14 353 79 211 135 393 343 516
592 18 36 40 74 49 85 10 11 30 41 45 67 31 55 24 88 -19 88 -18 0 -31 -11
-51 -47 -15 -27 -35 -57 -45 -68 -9 -11 -33 -53 -53 -93 -149 -299 -407 -557
-607 -608 -83 -22 -231 -14 -286 15 -118 61 -217 166 -278 296 -52 110 -64
172 -72 390 -9 257 9 344 118 570 76 156 224 295 366 342 71 24 92 26 238 26
135 -1 170 -4 227 -22 70 -22 99 -19 111 13 10 27 -18 45 -108 70 -97 26 -205
35 -325 26z"/>
<path d="M1430 2318 c-199 -100 -376 -253 -485 -418 -60 -90 -71 -128 -111
-365 -41 -240 1 -1057 61 -1201 8 -20 15 -47 15 -61 0 -13 9 -36 19 -51 11
-15 27 -52 37 -82 18 -59 37 -82 60 -73 31 12 35 40 14 103 -11 34 -18 65 -16
69 3 4 34 18 68 31 35 12 70 29 79 36 8 8 22 14 30 14 26 0 143 87 224 167
103 101 269 351 306 461 27 81 21 130 -28 249 -32 78 -45 97 -116 165 -88 85
-139 111 -259 132 -37 6 -70 15 -74 18 -4 4 10 15 32 23 205 82 349 192 437
333 72 115 77 125 94 196 26 108 16 166 -40 224 -47 50 -103 74 -177 79 -62 4
-70 1 -170 -49z m248 -52 c52 -27 67 -53 66 -114 -1 -82 -17 -128 -82 -231
-70 -112 -157 -191 -274 -248 -179 -87 -235 -113 -246 -113 -7 0 -52 -15 -100
-34 -147 -57 -136 -57 -128 5 13 97 58 263 80 294 12 17 34 50 48 75 31 54
168 188 253 247 33 23 101 63 150 87 75 38 100 46 148 46 32 0 70 -6 85 -14z
m-275 -875 c63 -22 164 -102 195 -156 58 -96 76 -204 48 -283 -28 -77 -206
-343 -276 -410 -58 -55 -171 -142 -186 -142 -5 0 -22 -7 -39 -16 -33 -18 -145
-64 -156 -64 -14 0 -38 111 -49 225 -6 66 -15 165 -21 220 -6 55 -11 221 -12
368 l-2 268 115 5 c63 3 117 8 120 11 12 12 208 -7 263 -26z"/>
</g>
</svg>
